# xmcd
#
# Track frame offsets:
#	150
#	27312
#	60646
#	78566
#	103926
#	129936
#	152791
#	178086
#	201871
#	238136
#
# Disc length: 3521 seconds
#
# Revision: 1
# Processed by: cddbd v1.5PL3 Copyright (c) Steve Scherf et al.
# Submitted via: EasyCDDAExtractor 6.2.0.3
#
DISCID=870dbf0a
DTITLE=Joan Osborne - A Day in the Garden Tour
DYEAR=1900
DGENRE=
TTITLE0=Platform Shoes
TTITLE1=Spider Web
TTITLE2=St Theresa
TTITLE3=Libertine
TTITLE4=Sensitive
TTITLE5=Baby Love
TTITLE6=One Of Us
TTITLE7=Strange Things
TTITLE8=Dracula Moon
TTITLE9=Ladder
EXTD=
EXTT0=
EXTT1=
EXTT2=
EXTT3=
EXTT4=
EXTT5=
EXTT6=
EXTT7=
EXTT8=
EXTT9=
PLAYORDER=
